<svg width="32" height="32" viewBox="0 0 32 32" fill="none" xmlns="http://www.w3.org/2000/svg">
<rect width="32" height="32" fill="white"/>
<path d="M25.0002 23.3256H22.6002V11.8589C22.6002 11.4322 22.378 11.0145 22.2668 10.8589L20.1335 8.8589C19.9134 8.65255 19.2891 8.50334 19.0002 8.4589H10.3335V6.0589C12.7779 6.01445 18.0002 5.95223 19.3335 6.0589C20.6668 6.16556 21.5335 6.72556 21.8002 6.99223L23.7335 8.8589C24.3869 9.48975 25.0002 10.2589 25.0002 10.8589V12.6589V23.3256Z" fill="#0959FE" stroke="#0959FE"/>
<path d="M18.9336 10C19.2006 10.0006 20.1338 10.9336 20.1338 10.9336C20.1544 10.9543 20.9996 11.8028 21 12.0664V26.5332H8.40039L16.0664 18.9336V22.2002H17.7998V16.0664C17.7997 15.7998 17.533 15.5332 17.333 15.5332H11.2002V17.4004H14.4668L7 24.7334V10H18.9336Z" fill="#0959FE"/>
</svg>
