<svg width="957" height="330" viewBox="0 0 957 330" fill="none" xmlns="http://www.w3.org/2000/svg">
<path d="M288 228.005H266.667V126.079C266.667 122.286 264.691 118.573 263.704 117.19L244.741 99.4124C242.784 97.5782 237.235 96.2519 234.667 95.8568H157.63V74.5235C179.358 74.1285 225.778 73.5754 237.63 74.5235C249.481 75.4717 257.185 80.4494 259.556 82.8198L276.741 99.4124C282.549 105.02 288 111.857 288 117.19V133.19V228.005Z" fill="#0959FE" stroke="#0959FE"/>
<path d="M234.074 109.556C236.445 109.556 244.741 117.852 244.741 117.852C244.782 117.893 252.444 125.562 252.444 127.926V256.519H140.444L208.593 188.963V218H224V163.482C224 161.111 221.629 158.74 219.852 158.74H165.333V175.333H194.37L128 240.519V109.556H234.074Z" fill="#0959FE"/>
<path d="M793.299 189.298L809.604 134.158H828.964L803.9 205.834C803.363 207.409 802.633 209.099 801.711 210.904C800.827 212.71 799.618 214.438 798.081 216.09C796.583 217.742 794.662 219.086 792.319 220.123C789.976 221.16 787.095 221.679 783.677 221.679C781.948 221.679 780.604 221.583 779.644 221.391C778.722 221.237 777.493 220.968 775.956 220.584L775.898 207.505C776.398 207.505 776.84 207.505 777.224 207.505C777.646 207.543 778.069 207.562 778.491 207.562C780.642 207.562 782.371 207.332 783.677 206.871C785.021 206.41 786.058 205.719 786.788 204.797C787.556 203.913 788.171 202.78 788.632 201.397L793.299 189.298ZM787.825 134.158L800.731 178.523L802.921 197.595L790.764 198.229L768.466 134.158H787.825Z" fill="white"/>
<path d="M765.552 108V196.5H747.518V108H765.552Z" fill="white"/>
<path d="M702.14 146.143V220.469H684.163V134.158H700.93L702.14 146.143ZM741.031 164.638V165.848C741.031 170.38 740.513 174.586 739.476 178.466C738.438 182.307 736.883 185.668 734.809 188.549C732.773 191.43 730.257 193.677 727.261 195.29C724.265 196.865 720.788 197.652 716.832 197.652C713.068 197.652 709.803 196.865 707.037 195.29C704.31 193.677 702.005 191.449 700.123 188.606C698.279 185.726 696.781 182.441 695.629 178.754C694.515 175.028 693.651 171.052 693.036 166.827V164.465C693.651 159.971 694.534 155.803 695.687 151.962C696.839 148.121 698.337 144.798 700.181 141.994C702.024 139.152 704.31 136.943 707.037 135.368C709.764 133.793 713.01 133.006 716.774 133.006C720.692 133.006 724.169 133.755 727.203 135.253C730.238 136.751 732.773 138.902 734.809 141.706C736.883 144.472 738.438 147.794 739.476 151.674C740.513 155.553 741.031 159.875 741.031 164.638ZM722.997 165.848V164.638C722.997 162.103 722.805 159.779 722.421 157.666C722.037 155.515 721.422 153.652 720.577 152.077C719.732 150.464 718.618 149.215 717.235 148.332C715.853 147.449 714.162 147.007 712.165 147.007C710.014 147.007 708.189 147.353 706.691 148.044C705.193 148.735 703.983 149.753 703.062 151.098C702.14 152.404 701.467 154.017 701.045 155.938C700.661 157.858 700.45 160.048 700.411 162.506V168.844C700.45 171.725 700.853 174.298 701.621 176.564C702.428 178.792 703.676 180.54 705.366 181.808C707.095 183.037 709.399 183.651 712.28 183.651C714.316 183.651 716.006 183.21 717.351 182.326C718.733 181.404 719.828 180.118 720.635 178.466C721.48 176.814 722.075 174.913 722.421 172.762C722.805 170.611 722.997 168.306 722.997 165.848Z" fill="white"/>
<path d="M639.649 146.143V220.469H621.673V134.158H638.439L639.649 146.143ZM678.541 164.638V165.848C678.541 170.38 678.022 174.586 676.985 178.466C675.948 182.307 674.393 185.668 672.318 188.549C670.283 191.43 667.767 193.677 664.771 195.29C661.774 196.865 658.298 197.652 654.342 197.652C650.577 197.652 647.312 196.865 644.547 195.29C641.82 193.677 639.515 191.449 637.633 188.606C635.789 185.726 634.291 182.441 633.139 178.754C632.025 175.028 631.16 171.052 630.546 166.827V164.465C631.16 159.971 632.044 155.803 633.196 151.962C634.349 148.121 635.847 144.798 637.69 141.994C639.534 139.152 641.82 136.943 644.547 135.368C647.274 133.793 650.52 133.006 654.284 133.006C658.202 133.006 661.678 133.755 664.713 135.253C667.747 136.751 670.283 138.902 672.318 141.706C674.393 144.472 675.948 147.794 676.985 151.674C678.022 155.553 678.541 159.875 678.541 164.638ZM660.507 165.848V164.638C660.507 162.103 660.315 159.779 659.931 157.666C659.547 155.515 658.932 153.652 658.087 152.077C657.242 150.464 656.128 149.215 654.745 148.332C653.362 147.449 651.672 147.007 649.675 147.007C647.524 147.007 645.699 147.353 644.201 148.044C642.703 148.735 641.493 149.753 640.571 151.098C639.649 152.404 638.977 154.017 638.555 155.938C638.171 157.858 637.959 160.048 637.921 162.506V168.844C637.959 171.725 638.363 174.298 639.131 176.564C639.938 178.792 641.186 180.54 642.876 181.808C644.604 183.037 646.909 183.651 649.79 183.651C651.826 183.651 653.516 183.21 654.86 182.326C656.243 181.404 657.338 180.118 658.145 178.466C658.99 176.814 659.585 174.913 659.931 172.762C660.315 170.611 660.507 168.306 660.507 165.848Z" fill="white"/>
<path d="M595.712 181.635V154.9C595.712 153.018 595.424 151.405 594.848 150.061C594.271 148.716 593.369 147.66 592.14 146.892C590.91 146.123 589.316 145.739 587.357 145.739C585.706 145.739 584.265 146.027 583.036 146.604C581.845 147.18 580.924 148.006 580.271 149.081C579.656 150.157 579.349 151.482 579.349 153.057H561.372C561.372 150.253 562.006 147.641 563.273 145.221C564.541 142.801 566.346 140.669 568.689 138.825C571.071 136.981 573.913 135.56 577.217 134.562C580.52 133.524 584.227 133.006 588.337 133.006C593.215 133.006 597.556 133.832 601.358 135.483C605.2 137.097 608.234 139.536 610.462 142.801C612.69 146.027 613.804 150.099 613.804 155.016V181.116C613.804 184.881 614.015 187.838 614.438 189.989C614.898 192.102 615.551 193.946 616.396 195.521V196.5H598.247C597.402 194.695 596.768 192.467 596.346 189.816C595.923 187.128 595.712 184.4 595.712 181.635ZM597.959 158.473L598.074 168.383H589.144C587.146 168.383 585.418 168.632 583.958 169.132C582.537 169.631 581.384 170.323 580.501 171.206C579.618 172.051 578.965 173.05 578.542 174.202C578.158 175.316 577.966 176.545 577.966 177.89C577.966 179.157 578.273 180.31 578.888 181.347C579.502 182.345 580.347 183.133 581.423 183.709C582.498 184.285 583.747 184.573 585.168 184.573C587.511 184.573 589.508 184.112 591.16 183.19C592.85 182.269 594.156 181.155 595.078 179.849C596 178.504 596.461 177.256 596.461 176.104L600.782 183.594C600.091 185.13 599.246 186.724 598.247 188.376C597.248 189.989 595.981 191.507 594.444 192.928C592.908 194.311 591.045 195.444 588.855 196.327C586.704 197.211 584.112 197.652 581.077 197.652C577.159 197.652 573.606 196.865 570.418 195.29C567.23 193.677 564.675 191.468 562.755 188.664C560.873 185.86 559.932 182.633 559.932 178.984C559.932 175.719 560.527 172.819 561.718 170.284C562.909 167.749 564.695 165.598 567.076 163.831C569.496 162.064 572.531 160.739 576.18 159.855C579.829 158.934 584.092 158.473 588.971 158.473H597.959Z" fill="white"/>
<path d="M550.326 134.158V142.34H516.62V134.158H550.326ZM528.028 119.005H538.688V181.059C538.688 183.171 539.014 184.765 539.667 185.841C540.32 186.916 541.165 187.627 542.202 187.973C543.239 188.318 544.353 188.491 545.544 188.491C546.427 188.491 547.349 188.414 548.31 188.261C549.308 188.069 550.057 187.915 550.557 187.8L550.614 196.5C549.769 196.769 548.655 197.019 547.272 197.249C545.928 197.518 544.296 197.652 542.375 197.652C539.763 197.652 537.362 197.134 535.173 196.097C532.983 195.06 531.236 193.331 529.93 190.911C528.662 188.453 528.028 185.149 528.028 181.001V119.005Z" fill="white"/>
<path d="M500.565 179.964C500.565 178.427 500.22 177.006 499.528 175.7C498.875 174.356 497.512 173.146 495.438 172.07C493.402 170.956 490.329 169.996 486.219 169.189C482.762 168.46 479.631 167.595 476.827 166.597C474.062 165.598 471.699 164.388 469.74 162.967C467.82 161.546 466.341 159.875 465.304 157.954C464.267 156.034 463.748 153.786 463.748 151.213C463.748 148.755 464.286 146.431 465.361 144.241C466.475 142.052 468.031 140.112 470.028 138.422C472.064 136.732 474.503 135.407 477.346 134.446C480.188 133.486 483.357 133.006 486.853 133.006C491.846 133.006 496.11 133.889 499.644 135.656C503.177 137.423 505.885 139.785 507.768 142.743C509.65 145.662 510.591 148.908 510.591 152.48H499.932C499.932 150.752 499.413 149.081 498.376 147.468C497.377 145.816 495.898 144.452 493.939 143.377C492.019 142.301 489.657 141.764 486.853 141.764C483.895 141.764 481.494 142.225 479.65 143.146C477.845 144.03 476.52 145.163 475.675 146.546C474.868 147.929 474.465 149.388 474.465 150.925C474.465 152.077 474.657 153.114 475.041 154.036C475.464 154.92 476.193 155.745 477.23 156.514C478.268 157.243 479.727 157.935 481.609 158.588C483.492 159.241 485.892 159.894 488.812 160.547C493.92 161.699 498.126 163.082 501.43 164.695C504.733 166.309 507.191 168.287 508.805 170.63C510.418 172.973 511.225 175.815 511.225 179.157C511.225 181.884 510.648 184.381 509.496 186.647C508.382 188.914 506.75 190.873 504.599 192.524C502.486 194.138 499.951 195.405 496.993 196.327C494.074 197.211 490.79 197.652 487.141 197.652C481.648 197.652 477 196.673 473.197 194.714C469.395 192.755 466.514 190.22 464.555 187.108C462.596 183.997 461.616 180.713 461.616 177.256H472.333C472.487 180.175 473.332 182.499 474.868 184.228C476.405 185.918 478.287 187.128 480.515 187.857C482.743 188.549 484.951 188.895 487.141 188.895C490.06 188.895 492.499 188.51 494.458 187.742C496.455 186.974 497.973 185.918 499.01 184.573C500.047 183.229 500.565 181.692 500.565 179.964Z" fill="white"/>
<path d="M440.302 182.096V134.158H451.019V196.5H440.82L440.302 182.096ZM442.318 168.959L446.755 168.844C446.755 172.992 446.313 176.833 445.43 180.367C444.585 183.863 443.202 186.897 441.281 189.471C439.361 192.044 436.845 194.061 433.733 195.521C430.622 196.942 426.839 197.652 422.383 197.652C419.348 197.652 416.563 197.211 414.028 196.327C411.532 195.444 409.381 194.08 407.575 192.236C405.77 190.393 404.368 187.992 403.369 185.034C402.409 182.076 401.929 178.523 401.929 174.375V134.158H412.588V174.49C412.588 177.294 412.895 179.618 413.51 181.462C414.163 183.267 415.027 184.708 416.103 185.783C417.216 186.82 418.446 187.55 419.79 187.973C421.173 188.395 422.594 188.606 424.054 188.606C428.586 188.606 432.178 187.742 434.828 186.014C437.479 184.247 439.38 181.884 440.532 178.927C441.723 175.931 442.318 172.608 442.318 168.959Z" fill="white"/>
<path d="M380.215 134.158H390.932V203.933C390.932 207.735 390.317 210.962 389.088 213.612C387.897 216.263 386.092 218.26 383.672 219.604C381.29 220.987 378.275 221.679 374.626 221.679C373.666 221.679 372.552 221.583 371.284 221.391C369.978 221.199 368.883 220.968 368 220.699L368.058 212.114C368.787 212.268 369.613 212.383 370.535 212.46C371.457 212.575 372.264 212.633 372.955 212.633C374.53 212.633 375.855 212.345 376.931 211.769C378.006 211.192 378.813 210.271 379.351 209.003C379.927 207.735 380.215 206.045 380.215 203.933V134.158ZM379.12 117.622C379.12 115.894 379.658 114.434 380.733 113.243C381.809 112.052 383.365 111.457 385.4 111.457C387.475 111.457 389.049 112.052 390.125 113.243C391.201 114.434 391.738 115.894 391.738 117.622C391.738 119.274 391.201 120.695 390.125 121.886C389.049 123.038 387.475 123.614 385.4 123.614C383.365 123.614 381.809 123.038 380.733 121.886C379.658 120.695 379.12 119.274 379.12 117.622Z" fill="white"/>
</svg>